<svg width="60" height="57" viewBox="0 0 60 57" fill="none" xmlns="http://www.w3.org/2000/svg">
<path d="M26.5 7.30322H9C7.67392 7.30322 6.40215 7.83001 5.46447 8.76769C4.52678 9.70537 4 10.9771 4 12.3032V47.3032C4 48.6293 4.52678 49.9011 5.46447 50.8388C6.40215 51.7764 7.67392 52.3032 9 52.3032H44C45.3261 52.3032 46.5979 51.7764 47.5355 50.8388C48.4732 49.9011 49 48.6293 49 47.3032V29.8032" stroke="white" stroke-width="8" stroke-linecap="round" stroke-linejoin="round"/>
<path d="M48.9729 1.71595C50.1843 0.617246 51.8273 -1.6372e-08 53.5405 0C55.2537 1.6372e-08 56.8967 0.617246 58.1081 1.71595C59.3194 2.81466 60 4.30482 60 5.85862C60 7.41243 59.3194 8.90259 58.1081 10.0013L29.1802 36.2382L17 39L20.045 27.9529L48.9729 1.71595Z" fill="white"/>
<rect x="47.1332" y="2.76123" width="13.1581" height="3.9612" transform="rotate(44.9797 47.1332 2.76123)" fill="#13152A"/>
</svg>
