<svg width="757" height="757" viewBox="0 0 757 757" fill="none" xmlns="http://www.w3.org/2000/svg">
<path fill-rule="evenodd" clip-rule="evenodd" d="M4.05355 3.98851C0.78155 7.26151 0.171546 8.52851 0.171546 12.0545C0.171546 14.3555 0.669549 17.2205 1.27755 18.4225C2.85655 21.5395 41.1316 59.9545 44.3716 61.6735C53.4396 66.4855 64.5346 58.3135 62.6736 48.1945C62.1266 45.2215 58.4705 41.0375 41.3425 23.7805C29.9735 12.3265 19.4566 2.31451 17.9715 1.53051C12.9246 -1.13149 8.36955 -0.32649 4.05355 3.98851ZM208.471 1.73051C203.335 4.26351 200.733 9.66051 201.881 15.3995C202.688 19.4385 251.999 77.9025 256.758 80.4645C261.444 82.9865 266.512 81.9665 270.851 77.6275C273.742 74.7365 274.172 73.6485 274.172 69.2175C274.172 64.3005 273.892 63.7955 265.942 54.3675C261.416 48.9985 250.146 35.6065 240.899 24.6065C231.652 13.6065 222.688 3.59451 220.981 2.35651C217.358 -0.26949 212.971 -0.48849 208.471 1.73051ZM384.471 2.00751C378.588 5.70151 376.689 12.3385 379.796 18.3475C380.69 20.0745 438.35 106.878 507.931 211.243C627.043 389.901 634.671 401.09 638.376 402.572C643.571 404.651 649.028 403.255 652.681 398.913C654.939 396.231 655.286 394.996 654.998 390.682C654.671 385.799 649.874 378.432 528.307 196.107C458.813 91.8815 400.708 5.31951 399.185 3.74751C395.472 -0.08549 389.018 -0.84849 384.471 2.00751ZM83.1715 76.8125C78.0795 78.6745 74.5915 85.1665 75.6355 90.8395C76.2265 94.0495 79.4606 97.7545 97.5006 115.89C120.49 139.001 122.572 140.45 129.511 138.16C131.489 137.507 134.294 135.562 135.746 133.836C138.057 131.09 138.33 130.03 137.94 125.323L137.494 119.947L117.083 99.4595C105.857 88.1915 95.4565 78.3275 93.9715 77.5395C91.2885 76.1155 86.0435 75.7625 83.1715 76.8125ZM290.378 101.587C288.758 102.951 286.872 105.418 286.187 107.07C283.665 113.159 285.071 115.506 306.946 141.732C318.345 155.399 329.947 168.949 332.729 171.844C337.432 176.74 338.115 177.107 342.514 177.107C347.924 177.107 351.605 175.104 353.723 171.008C355.673 167.237 355.553 161.106 353.471 158.08C349.457 152.245 305.946 101.056 304.212 100.128C300.55 98.1685 293.565 98.9045 290.378 101.587ZM159.207 152.413C152.554 154.705 149.224 163.52 152.599 169.907C155.058 174.561 207.38 225.899 210.429 226.649C217.024 228.272 224.183 224.634 226.156 218.656C228.568 211.348 227.464 209.851 197.943 180.404C182.944 165.443 169.405 152.73 167.857 152.154C164.419 150.875 163.601 150.9 159.207 152.413ZM374.471 196.73C368.826 199.513 365.959 206.911 368.434 212.307C370.684 217.214 420.362 274.943 423.426 276.212C434.938 280.981 445.778 268.94 439.277 258.607C435.229 252.173 388.78 198.508 385.83 196.857C381.984 194.705 378.655 194.667 374.471 196.73ZM5.93455 203.672C0.474546 206.635 -1.61445 215.827 1.92655 221.308C4.00255 224.52 58.1295 270.516 62.4845 272.768C66.5885 274.89 73.5456 274.044 76.7506 271.033C78.1006 269.764 79.6966 267.086 80.2976 265.081C82.4596 257.863 80.5105 255.598 49.6715 229.493C34.2715 216.457 20.3215 204.963 18.6715 203.952C15.0795 201.751 9.69355 201.633 5.93455 203.672ZM247.172 240.812C242.083 242.673 238.594 249.165 239.633 254.84C240.227 258.087 244.003 262.308 266.997 285.43C281.668 300.183 294.887 312.895 296.372 313.68C305.956 318.744 316.879 310.482 314.649 299.857C314.121 297.344 307.92 290.52 287.319 269.784C272.663 255.031 259.457 242.319 257.972 241.534C255.287 240.115 250.039 239.765 247.172 240.812ZM104.935 286.672C99.2965 289.731 97.2596 299.406 101.199 304.414C103.719 307.618 154.071 350.465 158.463 353.143C169.339 359.775 182.337 346.572 175.417 335.922C173.69 333.265 120.898 288.101 117.214 286.129C114.469 284.661 108.125 284.941 104.935 286.672ZM492.172 305.698C489.697 307.109 486.819 309.016 485.776 309.936C482.441 312.875 477.375 321.6 475.759 327.189C474.897 330.169 469.937 360.234 464.738 394.001C459.538 427.768 454.921 455.724 454.478 456.126C454.035 456.528 450.522 457.562 446.672 458.426C442.822 459.289 417.397 465.145 390.172 471.441C362.947 477.736 334.822 484.119 327.672 485.624C305.954 490.193 295.372 496.611 291.209 507.738C288.755 514.296 288.702 516.139 290.763 523.174C293.685 533.145 297.523 535.917 360.461 573.489C391.677 592.124 417.416 607.692 417.658 608.085C417.901 608.477 414.73 635.08 410.612 667.203C405.891 704.035 403.352 727.084 403.738 729.607C406.679 748.809 426.375 761.57 443.24 755.201C448.908 753.061 455.55 747.567 522.527 689.607C536.401 677.6 544.05 671.635 545.499 671.693C546.694 671.74 580.522 685.433 620.672 702.12L693.672 732.461L702.412 732.883C710.482 733.273 711.639 733.077 717.52 730.325C724.525 727.047 728.223 723.046 730.675 716.099C732.396 711.22 732.804 704.297 731.679 699.068C731.269 697.165 716.821 665.496 699.572 628.695L668.211 561.781L673.631 555.195C676.612 551.571 695.277 529.482 715.108 506.107C734.939 482.732 752.169 461.582 753.397 459.107C756.854 452.138 757.078 441.747 753.918 434.928C749.359 425.086 739.637 417.892 729.091 416.555C726.112 416.177 702.686 419.281 657.182 426.082C620.063 431.63 589.572 435.817 589.424 435.388C589.111 434.479 531.535 329.276 526.879 321.107C522.655 313.695 516.527 307.196 511.672 304.978C505.693 302.247 497.705 302.542 492.172 305.698ZM334.621 329.658C330.437 331.723 328.172 335.96 328.172 341.72V346.525L355.894 374.311C385.687 404.173 387.199 405.313 394.227 403.208C401.889 400.912 405.48 392.354 401.738 385.307C400.013 382.058 348.6 330.787 345.488 329.212C342.482 327.69 338.255 327.865 334.621 329.658ZM538.124 394.107C560.956 435.862 573.345 457.52 575.448 459.357C577.815 461.424 579.643 462.107 582.811 462.107C586.076 462.107 711.744 443.957 724.443 441.652C727.389 441.117 731.172 443.84 731.172 446.497C731.172 447.262 710.922 471.886 686.172 501.217C641.457 554.208 641.172 554.575 641.172 559.031C641.172 562.833 646.194 574.211 674.172 633.802C692.322 672.46 707.172 704.994 707.172 706.098C707.172 707.639 706.509 708.107 704.329 708.107C702.766 708.107 668.678 694.56 628.579 678.003C536.688 640.062 543.569 642.671 538.992 644.042C536.398 644.819 520.554 657.868 485.489 688.107C452.567 716.498 434.921 731.075 433.457 731.088C430.825 731.111 429.172 728.422 429.172 724.117C429.172 722.4 432.572 694.356 436.728 661.8C441.065 627.818 444.024 601.204 443.674 599.312C443.339 597.5 441.851 594.732 440.368 593.161C438.885 591.59 411.122 574.443 378.672 555.057C346.222 535.672 318.884 519.133 317.922 518.304C316.96 517.475 316.172 516.394 316.172 515.901C316.172 514.28 322.436 512.38 339.672 508.776C361.759 504.156 467.92 479.54 471.172 478.285C472.547 477.754 474.728 476.182 476.02 474.794C478.103 472.553 478.862 468.973 482.772 442.939C492.47 378.35 499.469 335.429 500.845 332.107C501.963 329.409 502.484 328.951 503.121 330.107C503.576 330.932 519.327 359.732 538.124 394.107ZM204.59 368.076C203.446 368.539 201.308 370.345 199.84 372.089C196.913 375.568 196.284 381.064 198.305 385.5C199.518 388.161 254.623 437.695 258.887 439.957C269.492 445.583 281.286 433.955 275.774 423.307C274.367 420.589 219.104 370.75 214.918 368.424C212.352 366.999 207.644 366.841 204.59 368.076ZM7.24255 379.859C5.35655 380.821 2.94054 382.799 1.87354 384.255C-0.270458 387.181 -0.650461 393.702 1.12954 397.027C2.14654 398.928 351.896 662.227 358.924 666.383C369.889 672.867 382.149 662.004 376.922 650.434C375.098 646.396 18.8945 379.652 14.1365 378.76C11.7455 378.312 9.60855 378.654 7.24255 379.859Z" fill="#EEFF42"/>
</svg>
